<svg width="199" height="51" viewBox="0 0 199 51" fill="none" xmlns="http://www.w3.org/2000/svg">
<g id="Group 1">
<path id="Top Pop" d="M79.1309 11.4062V37H74.7539V11.4062H79.1309ZM87.1641 11.4062V14.9219H66.791V11.4062H87.1641ZM86.8477 27.7012V27.2969C86.8477 25.9258 87.0469 24.6543 87.4453 23.4824C87.8438 22.2988 88.418 21.2734 89.168 20.4062C89.9297 19.5273 90.8555 18.8477 91.9453 18.3672C93.0469 17.875 94.2891 17.6289 95.6719 17.6289C97.0664 17.6289 98.3086 17.875 99.3984 18.3672C100.5 18.8477 101.432 19.5273 102.193 20.4062C102.955 21.2734 103.535 22.2988 103.934 23.4824C104.332 24.6543 104.531 25.9258 104.531 27.2969V27.7012C104.531 29.0723 104.332 30.3438 103.934 31.5156C103.535 32.6875 102.955 33.7129 102.193 34.5918C101.432 35.459 100.506 36.1387 99.416 36.6309C98.3262 37.1113 97.0898 37.3516 95.707 37.3516C94.3125 37.3516 93.0645 37.1113 91.9629 36.6309C90.873 36.1387 89.9473 35.459 89.1855 34.5918C88.4238 33.7129 87.8438 32.6875 87.4453 31.5156C87.0469 30.3438 86.8477 29.0723 86.8477 27.7012ZM91.084 27.2969V27.7012C91.084 28.5566 91.1719 29.3652 91.3477 30.127C91.5234 30.8887 91.7988 31.5566 92.1738 32.1309C92.5488 32.7051 93.0293 33.1562 93.6152 33.4844C94.2012 33.8125 94.8984 33.9766 95.707 33.9766C96.4922 33.9766 97.1719 33.8125 97.7461 33.4844C98.332 33.1562 98.8125 32.7051 99.1875 32.1309C99.5625 31.5566 99.8379 30.8887 100.014 30.127C100.201 29.3652 100.295 28.5566 100.295 27.7012V27.2969C100.295 26.4531 100.201 25.6562 100.014 24.9062C99.8379 24.1445 99.5566 23.4707 99.1699 22.8848C98.7949 22.2988 98.3145 21.8418 97.7285 21.5137C97.1543 21.1738 96.4688 21.0039 95.6719 21.0039C94.875 21.0039 94.1836 21.1738 93.5977 21.5137C93.0234 21.8418 92.5488 22.2988 92.1738 22.8848C91.7988 23.4707 91.5234 24.1445 91.3477 24.9062C91.1719 25.6562 91.084 26.4531 91.084 27.2969ZM112.336 21.6367V44.3125H108.1V17.9805H112.002L112.336 21.6367ZM124.729 27.3145V27.6836C124.729 29.0664 124.564 30.3496 124.236 31.5332C123.92 32.7051 123.445 33.7305 122.812 34.6094C122.191 35.4766 121.424 36.1504 120.51 36.6309C119.596 37.1113 118.541 37.3516 117.346 37.3516C116.162 37.3516 115.125 37.1348 114.234 36.7012C113.355 36.2559 112.611 35.6289 112.002 34.8203C111.393 34.0117 110.9 33.0625 110.525 31.9727C110.162 30.8711 109.904 29.6641 109.752 28.3516V26.9277C109.904 25.5332 110.162 24.2676 110.525 23.1309C110.9 21.9941 111.393 21.0156 112.002 20.1953C112.611 19.375 113.355 18.7422 114.234 18.2969C115.113 17.8516 116.139 17.6289 117.311 17.6289C118.506 17.6289 119.566 17.8633 120.492 18.332C121.418 18.7891 122.197 19.4453 122.83 20.3008C123.463 21.1445 123.938 22.1641 124.254 23.3594C124.57 24.543 124.729 25.8613 124.729 27.3145ZM120.492 27.6836V27.3145C120.492 26.4355 120.41 25.6211 120.246 24.8711C120.082 24.1094 119.824 23.4414 119.473 22.8672C119.121 22.293 118.67 21.8477 118.119 21.5312C117.58 21.2031 116.93 21.0391 116.168 21.0391C115.418 21.0391 114.773 21.168 114.234 21.4258C113.695 21.6719 113.244 22.0176 112.881 22.4629C112.518 22.9082 112.236 23.4297 112.037 24.0273C111.838 24.6133 111.697 25.252 111.615 25.9434V29.3535C111.756 30.1973 111.996 30.9707 112.336 31.6738C112.676 32.377 113.156 32.9395 113.777 33.3613C114.41 33.7715 115.219 33.9766 116.203 33.9766C116.965 33.9766 117.615 33.8125 118.154 33.4844C118.693 33.1562 119.133 32.7051 119.473 32.1309C119.824 31.5449 120.082 30.8711 120.246 30.1094C120.41 29.3477 120.492 28.5391 120.492 27.6836ZM147.439 27.4551H140.777V23.957H147.439C148.6 23.957 149.537 23.7695 150.252 23.3945C150.967 23.0195 151.488 22.5039 151.816 21.8477C152.156 21.1797 152.326 20.418 152.326 19.5625C152.326 18.7539 152.156 17.998 151.816 17.2949C151.488 16.5801 150.967 16.0059 150.252 15.5723C149.537 15.1387 148.6 14.9219 147.439 14.9219H142.131V37H137.719V11.4062H147.439C149.42 11.4062 151.102 11.7578 152.484 12.4609C153.879 13.1523 154.939 14.1133 155.666 15.3438C156.393 16.5625 156.756 17.957 156.756 19.5273C156.756 21.1797 156.393 22.5977 155.666 23.7812C154.939 24.9648 153.879 25.873 152.484 26.5059C151.102 27.1387 149.42 27.4551 147.439 27.4551ZM159.234 27.7012V27.2969C159.234 25.9258 159.434 24.6543 159.832 23.4824C160.23 22.2988 160.805 21.2734 161.555 20.4062C162.316 19.5273 163.242 18.8477 164.332 18.3672C165.434 17.875 166.676 17.6289 168.059 17.6289C169.453 17.6289 170.695 17.875 171.785 18.3672C172.887 18.8477 173.818 19.5273 174.58 20.4062C175.342 21.2734 175.922 22.2988 176.32 23.4824C176.719 24.6543 176.918 25.9258 176.918 27.2969V27.7012C176.918 29.0723 176.719 30.3438 176.32 31.5156C175.922 32.6875 175.342 33.7129 174.58 34.5918C173.818 35.459 172.893 36.1387 171.803 36.6309C170.713 37.1113 169.477 37.3516 168.094 37.3516C166.699 37.3516 165.451 37.1113 164.35 36.6309C163.26 36.1387 162.334 35.459 161.572 34.5918C160.811 33.7129 160.23 32.6875 159.832 31.5156C159.434 30.3438 159.234 29.0723 159.234 27.7012ZM163.471 27.2969V27.7012C163.471 28.5566 163.559 29.3652 163.734 30.127C163.91 30.8887 164.186 31.5566 164.561 32.1309C164.936 32.7051 165.416 33.1562 166.002 33.4844C166.588 33.8125 167.285 33.9766 168.094 33.9766C168.879 33.9766 169.559 33.8125 170.133 33.4844C170.719 33.1562 171.199 32.7051 171.574 32.1309C171.949 31.5566 172.225 30.8887 172.4 30.127C172.588 29.3652 172.682 28.5566 172.682 27.7012V27.2969C172.682 26.4531 172.588 25.6562 172.4 24.9062C172.225 24.1445 171.943 23.4707 171.557 22.8848C171.182 22.2988 170.701 21.8418 170.115 21.5137C169.541 21.1738 168.855 21.0039 168.059 21.0039C167.262 21.0039 166.57 21.1738 165.984 21.5137C165.41 21.8418 164.936 22.2988 164.561 22.8848C164.186 23.4707 163.91 24.1445 163.734 24.9062C163.559 25.6562 163.471 26.4531 163.471 27.2969ZM184.723 21.6367V44.3125H180.486V17.9805H184.389L184.723 21.6367ZM197.115 27.3145V27.6836C197.115 29.0664 196.951 30.3496 196.623 31.5332C196.307 32.7051 195.832 33.7305 195.199 34.6094C194.578 35.4766 193.811 36.1504 192.896 36.6309C191.982 37.1113 190.928 37.3516 189.732 37.3516C188.549 37.3516 187.512 37.1348 186.621 36.7012C185.742 36.2559 184.998 35.6289 184.389 34.8203C183.779 34.0117 183.287 33.0625 182.912 31.9727C182.549 30.8711 182.291 29.6641 182.139 28.3516V26.9277C182.291 25.5332 182.549 24.2676 182.912 23.1309C183.287 21.9941 183.779 21.0156 184.389 20.1953C184.998 19.375 185.742 18.7422 186.621 18.2969C187.5 17.8516 188.525 17.6289 189.697 17.6289C190.893 17.6289 191.953 17.8633 192.879 18.332C193.805 18.7891 194.584 19.4453 195.217 20.3008C195.85 21.1445 196.324 22.1641 196.641 23.3594C196.957 24.543 197.115 25.8613 197.115 27.3145ZM192.879 27.6836V27.3145C192.879 26.4355 192.797 25.6211 192.633 24.8711C192.469 24.1094 192.211 23.4414 191.859 22.8672C191.508 22.293 191.057 21.8477 190.506 21.5312C189.967 21.2031 189.316 21.0391 188.555 21.0391C187.805 21.0391 187.16 21.168 186.621 21.4258C186.082 21.6719 185.631 22.0176 185.268 22.4629C184.904 22.9082 184.623 23.4297 184.424 24.0273C184.225 24.6133 184.084 25.252 184.002 25.9434V29.3535C184.143 30.1973 184.383 30.9707 184.723 31.6738C185.062 32.377 185.543 32.9395 186.164 33.3613C186.797 33.7715 187.605 33.9766 188.59 33.9766C189.352 33.9766 190.002 33.8125 190.541 33.4844C191.08 33.1562 191.52 32.7051 191.859 32.1309C192.211 31.5449 192.469 30.8711 192.633 30.1094C192.797 29.3477 192.879 28.5391 192.879 27.6836Z" fill="#2D2D2D"/>
<g id="music 1">
<g id="Group">
<path id="Vector" d="M40.2227 0H10.7773C4.82517 0 0 4.82509 0 10.7772V40.2225C0 46.1747 4.82517 51 10.7773 51H40.2227C46.1748 51 51 46.1747 51 40.2225V10.7772C51 4.82509 46.1748 0 40.2227 0Z" fill="url(#paint0_linear_3_8)"/>
<path id="Vector_2" d="M34.68 14.28L20.4 19.0618V30.5368C19.7836 30.1665 19.0791 29.9686 18.36 29.9635C16.118 29.9635 14.28 31.7995 14.28 34.0435C14.28 36.2834 16.118 38.1235 18.36 38.1235C20.602 38.1235 22.44 36.2834 22.44 34.0435V20.5285L32.64 17.085V28.4968C32.0236 28.1265 31.3191 27.9286 30.6 27.9235C28.358 27.9235 26.52 29.7595 26.52 32.0035C26.52 34.2434 28.358 36.0835 30.6 36.0835C32.842 36.0835 34.68 34.2434 34.68 32.0035V14.28ZM30.6 29.9635C31.7383 29.9635 32.64 30.8632 32.64 32.0035C32.64 33.1418 31.7383 34.0435 30.6 34.0435C29.4617 34.0435 28.56 33.1418 28.56 32.0035C28.56 30.8632 29.4617 29.9635 30.6 29.9635ZM18.36 32.0035C19.4983 32.0035 20.4 32.9032 20.4 34.0435C20.4 35.1818 19.4983 36.0835 18.36 36.0835C17.2217 36.0835 16.32 35.1818 16.32 34.0435C16.32 32.9032 17.2217 32.0035 18.36 32.0035Z" fill="white"/>
</g>
</g>
</g>
<defs>
<linearGradient id="paint0_linear_3_8" x1="6.81844" y1="3.84066" x2="46.8836" y2="47.3748" gradientUnits="userSpaceOnUse">
<stop stop-color="#24F7BC"/>
<stop offset="1" stop-color="#24C4FC"/>
</linearGradient>
</defs>
</svg>
